<?xml version="1.0" encoding="UTF-8"?>
<svg xmlns="http://www.w3.org/2000/svg" version="1.1" viewBox="0 0 112.13 45">
  <defs>
    <style>
      .cls-1 {
        fill: #231f20;
      }
    </style>
  </defs>
  <!-- Generator: Adobe Illustrator 28.7.2, SVG Export Plug-In . SVG Version: 1.2.0 Build 154)  -->
  <g>
    <g id="Layer_1">
      <path class="cls-1" d="M0,0h4.13l5.53,13.49h.22L15.4,0h4.13v18.62h-3.24V5.83h-.17l-5.15,12.74h-2.42L3.41,5.8h-.17v12.82H0V0Z"/>
      <path class="cls-1" d="M28.38,18.89c-1.36,0-2.54-.3-3.54-.9-1-.6-1.77-1.44-2.32-2.52s-.82-2.34-.82-3.78.27-2.71.82-3.79,1.32-1.93,2.32-2.53c1-.6,2.18-.9,3.54-.9s2.55.3,3.55.9c1,.6,1.77,1.44,2.32,2.53.55,1.08.82,2.35.82,3.79s-.27,2.7-.82,3.78c-.55,1.08-1.32,1.92-2.32,2.52-1,.6-2.18.9-3.55.9ZM28.4,16.25c.74,0,1.36-.2,1.85-.61s.87-.96,1.11-1.65c.25-.69.37-1.46.37-2.31s-.12-1.63-.37-2.32c-.25-.69-.62-1.25-1.11-1.66s-1.12-.62-1.85-.62-1.39.21-1.89.62-.87.96-1.12,1.66-.37,1.47-.37,2.32.12,1.62.37,2.31c.25.69.62,1.24,1.12,1.65s1.13.61,1.89.61Z"/>
      <path class="cls-1" d="M42.27,18.86c-1.1,0-2.08-.28-2.95-.84-.87-.56-1.55-1.38-2.05-2.46-.5-1.07-.75-2.38-.75-3.91s.26-2.86.77-3.93c.51-1.07,1.2-1.88,2.08-2.43.87-.55,1.85-.82,2.92-.82.82,0,1.49.14,2.02.41.53.28.95.61,1.25.99.31.39.55.75.72,1.09h.14V0h3.3v18.62h-3.24v-2.2h-.2c-.17.34-.42.7-.74,1.08s-.75.7-1.27.97-1.19.4-1.99.4ZM43.18,16.16c.7,0,1.29-.19,1.78-.57.49-.38.86-.91,1.12-1.59s.38-1.47.38-2.37-.13-1.69-.38-2.35c-.25-.67-.62-1.18-1.11-1.55-.49-.37-1.09-.55-1.8-.55s-1.35.19-1.84.57c-.49.38-.86.91-1.11,1.58-.25.67-.37,1.44-.37,2.31s.13,1.65.38,2.33c.25.68.62,1.22,1.12,1.61.49.39,1.1.59,1.82.59Z"/>
      <path class="cls-1" d="M58.64,18.89c-1.4,0-2.61-.29-3.62-.88s-1.8-1.42-2.34-2.49c-.55-1.08-.82-2.34-.82-3.8s.27-2.7.82-3.79c.55-1.09,1.32-1.94,2.3-2.54.99-.61,2.15-.91,3.48-.91.86,0,1.67.14,2.44.41.77.28,1.45.7,2.04,1.28.59.58,1.06,1.31,1.4,2.2.34.89.51,1.94.51,3.17v1.01h-11.45v-2.22h8.29c0-.63-.14-1.19-.41-1.69s-.64-.88-1.11-1.17c-.48-.29-1.03-.43-1.66-.43-.67,0-1.26.16-1.77.49-.51.33-.9.75-1.19,1.27-.28.52-.43,1.1-.43,1.72v1.94c0,.81.15,1.51.45,2.09.3.58.71,1.02,1.25,1.33.53.31,1.16.46,1.87.46.48,0,.91-.07,1.3-.21.39-.14.72-.34,1.01-.6.29-.27.5-.6.65-.99l3.07.34c-.19.81-.56,1.52-1.1,2.12-.54.6-1.24,1.07-2.08,1.4-.84.33-1.81.5-2.89.5Z"/>
      <path class="cls-1" d="M66.86,18.62V4.65h3.19v2.33h.15c.25-.81.69-1.43,1.31-1.87s1.33-.66,2.13-.66c.18,0,.39,0,.61.02.23.01.42.04.57.07v3.03c-.14-.05-.36-.09-.66-.13-.3-.04-.59-.06-.87-.06-.6,0-1.14.13-1.61.39-.48.26-.85.61-1.12,1.07-.27.45-.41.98-.41,1.57v8.21h-3.29Z"/>
      <path class="cls-1" d="M79.54,10.44v8.18h-3.29V4.65h3.15v2.37h.16c.32-.78.83-1.4,1.54-1.86.71-.46,1.58-.69,2.62-.69.96,0,1.8.21,2.52.62.72.41,1.28,1.01,1.67,1.79.4.78.59,1.73.59,2.85v8.89h-3.29v-8.38c0-.93-.24-1.66-.72-2.19-.48-.53-1.15-.79-2-.79-.58,0-1.09.13-1.53.38-.45.25-.79.61-1.05,1.09-.25.47-.38,1.04-.38,1.72Z"/>
      <path class="cls-1" d="M0,23.98v-2.83h14.86v2.83h-5.75v15.79h-3.35v-15.79H0Z"/>
      <path class="cls-1" d="M17.82,40.04c-1.4,0-2.61-.29-3.62-.88s-1.8-1.42-2.34-2.49c-.55-1.08-.82-2.34-.82-3.8s.27-2.7.82-3.79c.55-1.09,1.32-1.94,2.3-2.54.99-.61,2.15-.91,3.48-.91.86,0,1.67.14,2.44.41.77.28,1.45.7,2.04,1.28.59.58,1.06,1.31,1.4,2.2.34.89.51,1.94.51,3.17v1.01h-11.45v-2.22h8.29c0-.63-.14-1.19-.41-1.69s-.64-.88-1.11-1.17c-.48-.29-1.03-.43-1.66-.43-.67,0-1.26.16-1.77.49-.51.33-.9.75-1.19,1.27-.28.52-.43,1.1-.43,1.72v1.94c0,.81.15,1.51.45,2.09.3.58.71,1.02,1.25,1.33.53.31,1.16.46,1.87.46.48,0,.91-.07,1.3-.21.39-.14.72-.34,1.01-.6.29-.27.5-.6.65-.99l3.07.34c-.19.81-.56,1.52-1.1,2.12-.54.6-1.24,1.07-2.08,1.4-.84.33-1.81.5-2.89.5Z"/>
      <path class="cls-1" d="M29.33,21.15v18.62h-3.29v-18.62h3.29Z"/>
      <path class="cls-1" d="M38.13,40.04c-1.4,0-2.61-.29-3.62-.88s-1.8-1.42-2.34-2.49c-.55-1.08-.82-2.34-.82-3.8s.27-2.7.82-3.79c.55-1.09,1.32-1.94,2.3-2.54.99-.61,2.15-.91,3.48-.91.86,0,1.67.14,2.44.41.77.28,1.45.7,2.04,1.28.59.58,1.06,1.31,1.4,2.2.34.89.51,1.94.51,3.17v1.01h-11.45v-2.22h8.29c0-.63-.14-1.19-.41-1.69s-.64-.88-1.11-1.17c-.48-.29-1.03-.43-1.66-.43-.67,0-1.26.16-1.77.49-.51.33-.9.75-1.19,1.27-.28.52-.43,1.1-.43,1.72v1.94c0,.81.15,1.51.45,2.09.3.58.71,1.02,1.25,1.33.53.31,1.16.46,1.87.46.48,0,.91-.07,1.3-.21.39-.14.72-.34,1.01-.6.29-.27.5-.6.65-.99l3.07.34c-.19.81-.56,1.52-1.1,2.12-.54.6-1.24,1.07-2.08,1.4-.84.33-1.81.5-2.89.5Z"/>
      <path class="cls-1" d="M46.35,45v-19.2h3.24v2.31h.19c.17-.34.41-.7.72-1.09.31-.38.73-.71,1.25-.99.53-.28,1.2-.41,2.02-.41,1.08,0,2.05.27,2.92.82.87.55,1.56,1.36,2.07,2.43.51,1.07.77,2.38.77,3.93s-.25,2.84-.75,3.91c-.5,1.07-1.19,1.89-2.05,2.46-.87.56-1.85.84-2.95.84-.8,0-1.46-.13-1.99-.4s-.95-.59-1.27-.97c-.32-.38-.56-.74-.74-1.08h-.14v7.44h-3.29ZM49.58,32.79c0,.9.13,1.69.39,2.37.26.68.63,1.21,1.12,1.59.49.38,1.08.57,1.78.57s1.34-.2,1.83-.59.86-.93,1.11-1.61c.25-.68.38-1.46.38-2.33s-.12-1.64-.37-2.31c-.25-.67-.62-1.2-1.11-1.58s-1.1-.57-1.84-.57-1.3.18-1.79.55c-.49.37-.86.89-1.11,1.55-.25.67-.38,1.45-.38,2.35Z"/>
      <path class="cls-1" d="M65.6,40.05c-.88,0-1.68-.16-2.39-.48s-1.26-.79-1.67-1.41-.61-1.39-.61-2.31c0-.79.15-1.44.44-1.96.29-.52.69-.93,1.19-1.24.5-.31,1.07-.54,1.71-.71.63-.16,1.29-.28,1.97-.35.82-.08,1.48-.16,1.99-.23.51-.07.88-.18,1.11-.33s.35-.38.35-.7v-.05c0-.68-.2-1.21-.61-1.59s-.99-.56-1.75-.56c-.81,0-1.44.18-1.91.53s-.79.77-.95,1.25l-3.07-.44c.24-.85.64-1.56,1.2-2.13.56-.57,1.24-1,2.05-1.29.81-.29,1.7-.43,2.67-.43.67,0,1.34.08,2.01.24.67.16,1.28.42,1.83.78.55.36,1,.85,1.33,1.47.34.62.5,1.39.5,2.32v9.35h-3.16v-1.92h-.11c-.2.39-.48.75-.84,1.09-.36.34-.81.61-1.35.81-.54.2-1.18.3-1.9.3ZM66.45,37.63c.66,0,1.23-.13,1.72-.4.49-.26.86-.61,1.12-1.05s.4-.91.4-1.43v-1.65c-.1.08-.28.16-.52.24-.25.07-.52.14-.82.19-.3.05-.6.1-.9.15-.3.04-.55.08-.77.11-.49.07-.93.18-1.32.33-.39.15-.69.36-.92.63s-.34.62-.34,1.04c0,.61.22,1.06.66,1.37.44.31,1.01.46,1.69.46Z"/>
      <path class="cls-1" d="M82.99,25.8v2.55h-8.03v-2.55h8.03ZM76.94,22.46h3.29v13.11c0,.44.07.78.21,1.01.14.23.32.39.54.48.22.08.47.13.75.13.21,0,.4-.01.57-.05.17-.03.3-.06.4-.08l.55,2.57c-.18.06-.43.13-.75.2-.33.07-.72.12-1.19.13-.83.02-1.57-.1-2.23-.38-.66-.28-1.18-.7-1.57-1.29s-.57-1.31-.57-2.18v-13.66Z"/>
      <path class="cls-1" d="M88.53,31.59v8.18h-3.29v-18.62h3.22v7.03h.16c.33-.79.83-1.41,1.52-1.87.69-.46,1.57-.69,2.63-.69.97,0,1.81.2,2.54.61.72.41,1.28,1,1.68,1.78.4.78.6,1.74.6,2.86v8.89h-3.29v-8.38c0-.94-.24-1.67-.72-2.2-.48-.52-1.16-.79-2.02-.79-.58,0-1.1.13-1.56.38-.46.25-.82.61-1.07,1.09s-.39,1.04-.39,1.72Z"/>
      <path class="cls-1" d="M101.7,45c-.45,0-.86-.03-1.24-.1-.38-.07-.68-.15-.91-.24l.76-2.56c.48.14.91.21,1.28.2s.71-.12,1-.35c.29-.23.53-.6.73-1.13l.28-.75-5.06-14.26h3.49l3.22,10.55h.15l3.23-10.55h3.5l-5.59,15.66c-.26.74-.61,1.37-1.04,1.9-.43.53-.96.94-1.58,1.22-.62.28-1.36.42-2.22.42Z"/>
    </g>
  </g>
</svg>