<?xml version="1.0" encoding="UTF-8"?>
<svg xmlns="http://www.w3.org/2000/svg" version="1.1" viewBox="0 0 644.3 508.36">
  <defs>
    <style>
      .cls-1 {
        fill: none;
        stroke: #221f1f;
        stroke-miterlimit: 10;
        stroke-width: 1.32px;
      }

      .cls-2 {
        fill: #fff;
      }

      .cls-3 {
        fill: #221f1f;
      }
    </style>
  </defs>
  <!-- Generator: Adobe Illustrator 28.7.2, SVG Export Plug-In . SVG Version: 1.2.0 Build 154)  -->
  <g>
    <g id="Layer_1">
      <g>
        <path class="cls-2" d="M.66,11.89v425.83c0,6.2,5.03,11.23,11.23,11.23h239.53c6.2,0,11.23-5.03,11.23-11.23V11.89c0-6.2-5.03-11.23-11.23-11.23H11.89C5.69.66.66,5.69.66,11.89"/>
        <rect class="cls-1" x=".66" y=".66" width="261.98" height="448.29" rx="11.23" ry="11.23"/>
        <path class="cls-2" d="M7.33,11.83v424.91c0,2.39,1.94,4.33,4.33,4.33h240.12c2.39,0,4.33-1.94,4.33-4.33V11.83c0-2.39-1.94-4.33-4.33-4.33H11.66c-2.39,0-4.33,1.94-4.33,4.33"/>
        <rect class="cls-1" x="7.33" y="7.5" width="248.78" height="433.57" rx="4.33" ry="4.33"/>
        <rect class="cls-2" x="262.71" y="109.49" width="4.13" height="59.88"/>
        <rect class="cls-1" x="262.71" y="109.49" width="4.13" height="59.88"/>
        <rect class="cls-2" x="262.71" y="180.38" width="4.13" height="14.97"/>
        <rect class="cls-1" x="262.71" y="180.38" width="4.13" height="14.97"/>
        <path class="cls-2" d="M632.42.66h-239.53c-6.2,0-11.23,5.03-11.23,11.23v425.83c0,6.2,5.03,11.23,11.23,11.23h239.53c6.2,0,11.23-5.03,11.23-11.23V11.89c0-6.2-5.03-11.23-11.23-11.23"/>
        <rect class="cls-1" x="381.66" y=".66" width="261.98" height="448.29" rx="11.23" ry="11.23"/>
        <rect class="cls-2" x="377.47" y="109.49" width="4.13" height="59.88"/>
        <rect class="cls-1" x="377.47" y="109.49" width="4.13" height="59.88"/>
        <rect class="cls-2" x="377.47" y="180.38" width="4.13" height="14.97"/>
        <rect class="cls-1" x="377.47" y="180.38" width="4.13" height="14.97"/>
        <path class="cls-2" d="M332.63.66h-23.7c-2.07,0-3.74,1.68-3.74,3.74v440.8c0,2.07,1.68,3.74,3.74,3.74h23.7c2.07,0,3.74-1.68,3.74-3.74V4.4c0-2.07-1.68-3.74-3.74-3.74"/>
        <rect class="cls-1" x="305.19" y=".66" width="31.18" height="448.29" rx="3.74" ry="3.74"/>
        <path class="cls-2" d="M332.63.66h-23.7c-2.07,0-3.74,1.68-3.74,3.74v440.8c0,2.07,1.68,3.74,3.74,3.74h23.7c2.07,0,3.74-1.68,3.74-3.74V4.4c0-2.07-1.68-3.74-3.74-3.74"/>
        <rect class="cls-1" x="305.19" y=".66" width="31.18" height="448.29" rx="3.74" ry="3.74"/>
        <path class="cls-2" d="M323.21,169.38h-4.49c-.83,0-1.5-.67-1.5-1.5v-56.89c0-.83.67-1.5,1.5-1.5h4.49c.83,0,1.5.67,1.5,1.5v56.89c0,.83-.67,1.5-1.5,1.5"/>
        <path class="cls-1" d="M318.72,109.49h4.49c.83,0,1.5.67,1.5,1.5v56.89c0,.83-.67,1.5-1.5,1.5h-4.49c-.83,0-1.5-.67-1.5-1.5v-56.89c0-.83.67-1.5,1.5-1.5Z"/>
        <path class="cls-2" d="M320.96,195.35h0c-4.13,0-7.48-3.35-7.48-7.48s3.35-7.49,7.48-7.49,7.48,3.35,7.48,7.49-3.35,7.48-7.48,7.48"/>
        <path class="cls-1" d="M320.96,195.35h0c-4.13,0-7.48-3.35-7.48-7.48s3.35-7.49,7.48-7.49,7.48,3.35,7.48,7.49-3.35,7.48-7.48,7.48Z"/>
        <path class="cls-2" d="M419.42,39.05c0,3.29-2.67,5.96-5.96,5.96s-5.96-2.67-5.96-5.96,2.67-5.96,5.96-5.96,5.96,2.67,5.96,5.96"/>
        <path class="cls-1" d="M419.42,39.05c0,3.29-2.67,5.96-5.96,5.96s-5.96-2.67-5.96-5.96,2.67-5.96,5.96-5.96,5.96,2.67,5.96,5.96Z"/>
        <path class="cls-2" d="M435.16,39.05c0,1.99-1.62,3.61-3.61,3.61s-3.61-1.61-3.61-3.61,1.62-3.61,3.61-3.61,3.61,1.61,3.61,3.61"/>
        <path class="cls-1" d="M435.16,39.05c0,1.99-1.62,3.61-3.61,3.61s-3.61-1.61-3.61-3.61,1.62-3.61,3.61-3.61,3.61,1.61,3.61,3.61Z"/>
        <path class="cls-2" d="M.66,480.26v23.7c0,2.07,1.68,3.74,3.74,3.74h254.5c2.07,0,3.74-1.68,3.74-3.74v-23.7c0-2.07-1.68-3.74-3.74-3.74H4.4c-2.07,0-3.74,1.68-3.74,3.74"/>
        <path class="cls-1" d="M4.4,476.51h254.5c2.07,0,3.74,1.68,3.74,3.74v23.7c0,2.07-1.68,3.74-3.74,3.74H4.4c-2.07,0-3.74-1.68-3.74-3.74v-23.7c0-2.07,1.68-3.74,3.74-3.74Z"/>
        <rect class="cls-2" x="262.71" y="484.62" width="4.13" height="14.97"/>
        <rect class="cls-1" x="262.71" y="484.62" width="4.13" height="14.97"/>
        <path class="cls-2" d="M141.22,496.52h-17.95c-2.41,0-4.37-1.96-4.37-4.37s1.96-4.37,4.37-4.37h17.95c2.41,0,4.37,1.96,4.37,4.37s-1.96,4.37-4.37,4.37"/>
        <path class="cls-1" d="M141.22,496.52h-17.95c-2.41,0-4.37-1.96-4.37-4.37s1.96-4.37,4.37-4.37h17.95c2.41,0,4.37,1.96,4.37,4.37s-1.96,4.37-4.37,4.37Z"/>
        <path class="cls-3" d="M48.45,495.69h0c-.26-.26-.26-.68,0-.94l1.55-1.55c.26-.26.68-.26.94,0,.26.26.26.68,0,.94l-1.55,1.55c-.26.26-.68.26-.94,0"/>
        <path class="cls-3" d="M53.05,491.09h0c-.26-.26-.26-.68,0-.94l1.55-1.55c.26-.26.68-.26.94,0,.26.26.26.68,0,.94l-1.55,1.55c-.26.26-.68.26-.94,0"/>
        <path class="cls-3" d="M48.45,488.6h0c.26-.26.68-.26.94,0l1.55,1.55c.26.26.26.68,0,.94-.26.26-.68.26-.94,0l-1.55-1.55c-.26-.26-.26-.68,0-.94"/>
        <path class="cls-3" d="M53.05,493.2h0c.26-.26.68-.26.94,0l1.55,1.55c.26.26.26.68,0,.94-.26.26-.68.26-.94,0l-1.55-1.55c-.26-.26-.26-.68,0-.94"/>
        <path class="cls-3" d="M58.16,495.69h0c-.26-.26-.26-.68,0-.94l1.55-1.55c.26-.26.68-.26.94,0,.26.26.26.68,0,.94l-1.55,1.55c-.26.26-.68.26-.94,0"/>
        <path class="cls-3" d="M62.76,491.09h0c-.26-.26-.26-.68,0-.94l1.55-1.55c.26-.26.68-.26.94,0,.26.26.26.68,0,.94l-1.55,1.55c-.26.26-.68.26-.94,0"/>
        <path class="cls-3" d="M58.16,488.6h0c.26-.26.68-.26.94,0l1.55,1.55c.26.26.26.68,0,.94-.26.26-.68.26-.94,0l-1.55-1.55c-.26-.26-.26-.68,0-.94"/>
        <path class="cls-3" d="M62.76,493.2h0c.26-.26.68-.26.94,0l1.55,1.55c.26.26.26.68,0,.94-.26.26-.68.26-.94,0l-1.55-1.55c-.26-.26-.26-.68,0-.94"/>
        <path class="cls-3" d="M67.88,495.69h0c-.26-.26-.26-.68,0-.94l1.55-1.55c.26-.26.68-.26.94,0,.26.26.26.68,0,.94l-1.55,1.55c-.26.26-.68.26-.94,0"/>
        <path class="cls-3" d="M72.47,491.09h0c-.26-.26-.26-.68,0-.94l1.55-1.55c.26-.26.68-.26.94,0,.26.26.26.68,0,.94l-1.55,1.55c-.26.26-.68.26-.94,0"/>
        <path class="cls-3" d="M67.88,488.6h0c.26-.26.68-.26.94,0l1.55,1.55c.26.26.26.68,0,.94-.26.26-.68.26-.94,0l-1.55-1.55c-.26-.26-.26-.68,0-.94"/>
        <path class="cls-3" d="M72.47,493.2h0c.26-.26.68-.26.94,0l1.55,1.55c.26.26.26.68,0,.94-.26.26-.68.26-.94,0l-1.55-1.55c-.26-.26-.26-.68,0-.94"/>
        <path class="cls-2" d="M622.9,423.57c0,2.37-1.92,4.29-4.29,4.29s-4.29-1.92-4.29-4.29,1.92-4.29,4.29-4.29,4.29,1.92,4.29,4.29"/>
        <path class="cls-1" d="M622.9,423.57c0,2.37-1.92,4.29-4.29,4.29s-4.29-1.92-4.29-4.29,1.92-4.29,4.29-4.29,4.29,1.92,4.29,4.29Z"/>
        <line class="cls-1" x1="622.9" y1="423.57" x2="614.32" y2="423.57"/>
        <path class="cls-2" d="M411.34,423.57c0,2.37-1.92,4.29-4.29,4.29s-4.29-1.92-4.29-4.29,1.92-4.29,4.29-4.29,4.29,1.92,4.29,4.29"/>
        <path class="cls-1" d="M411.34,423.57c0,2.37-1.92,4.29-4.29,4.29s-4.29-1.92-4.29-4.29,1.92-4.29,4.29-4.29,4.29,1.92,4.29,4.29Z"/>
        <line class="cls-1" x1="411.34" y1="423.57" x2="402.77" y2="423.57"/>
        <path class="cls-1" d="M431.55,53.32h-18.25c-7.88,0-14.26-6.39-14.26-14.26s6.39-14.26,14.26-14.26h18.25c7.88,0,14.26,6.39,14.26,14.26s-6.39,14.26-14.26,14.26Z"/>
      </g>
    </g>
  </g>
</svg>